<svg viewBox="0 0 94 17" fill="none" xmlns="http://www.w3.org/2000/svg"><path d="M0.762157 14V3.93377H4.50104L5.69461 7.64389C6.05891 8.78473 6.34652 9.73863 6.55743 10.5056H6.67247C6.88338 9.73863 7.17099 8.78473 7.53529 7.64389L8.72886 3.93377H12.4677V14H9.97995V9.59962C9.97995 8.21911 9.98953 7.13579 10.0087 6.34967L9.90805 6.33528C9.74507 6.93926 9.54375 7.62472 9.30407 8.39167C9.21779 8.6601 9.09795 9.06275 8.94456 9.59962L7.62157 14H5.60833L4.28534 9.59962C4.13195 9.06275 4.01211 8.6601 3.92583 8.39167C3.68616 7.62472 3.48483 6.93926 3.32186 6.33528L3.22119 6.34967C3.24037 7.13579 3.24995 8.21911 3.24995 9.59962V14H0.762157ZM13.0736 12.1737C13.0736 11.5122 13.3229 10.9897 13.8214 10.6062C14.3295 10.2132 15.0917 10.0214 16.1079 10.031C17.0186 10.0406 17.6418 9.95913 17.9773 9.78656C18.3129 9.614 18.4806 9.36474 18.4806 9.03879C18.4806 8.77035 18.3704 8.54506 18.1499 8.36291C17.9294 8.17117 17.5891 8.0753 17.1289 8.0753C16.6399 8.0753 16.2517 8.20473 15.9641 8.46357C15.6861 8.72242 15.5279 9.08672 15.4895 9.55648H13.1743C13.2414 8.62655 13.6009 7.8596 14.2528 7.25563C14.9047 6.65165 15.8538 6.34967 17.1001 6.34967C18.3177 6.34967 19.2332 6.62768 19.8468 7.18372C20.4699 7.73018 20.7815 8.43002 20.7815 9.28325V14H18.5525L18.4806 11.7423H18.4087C18.3129 12.5188 18.0157 13.1276 17.5171 13.5686C17.0186 14.0096 16.3715 14.2301 15.5758 14.2301C14.8376 14.2301 14.2336 14.0575 13.7639 13.7124C13.3037 13.3673 13.0736 12.8544 13.0736 12.1737ZM15.432 12.0011C15.432 12.2504 15.5231 12.4421 15.7052 12.5763C15.8874 12.7106 16.1366 12.7777 16.453 12.7777C16.7981 12.7777 17.1241 12.6914 17.4309 12.5188C17.7472 12.3463 18.0013 12.1162 18.193 11.8286C18.3848 11.5314 18.4806 11.215 18.4806 10.8795V9.72904H18.4087C18.3608 10.055 18.2649 10.3186 18.1211 10.52C17.9869 10.7213 17.7712 10.8843 17.474 11.0089C17.1864 11.1239 16.7838 11.2006 16.2661 11.239C16.0072 11.2582 15.8011 11.3348 15.6477 11.4691C15.5039 11.5937 15.432 11.771 15.432 12.0011ZM27.2925 3.93377H29.6365V14H27.3644L27.2925 11.9724H27.2062C26.9761 12.7393 26.6166 13.3097 26.1277 13.6836C25.6484 14.0479 25.0971 14.2301 24.474 14.2301C23.8796 14.2301 23.3475 14.0719 22.8778 13.7555C22.408 13.4392 22.0389 12.9886 21.7705 12.4038C21.5116 11.8094 21.3822 11.1143 21.3822 10.3186C21.3822 9.51334 21.5116 8.81349 21.7705 8.21911C22.0389 7.62472 22.408 7.16934 22.8778 6.85298C23.3475 6.53661 23.8796 6.37843 24.474 6.37843C25.0971 6.37843 25.6484 6.56537 26.1277 6.93926C26.6166 7.30356 26.9761 7.87398 27.2062 8.65052H27.2925V3.93377ZM25.5237 12.677C26.0606 12.677 26.4872 12.5044 26.8036 12.1593C27.1295 11.8046 27.2925 11.3444 27.2925 10.7788V9.84409C27.2925 9.27846 27.1295 8.81829 26.8036 8.46357C26.4872 8.10886 26.0606 7.9315 25.5237 7.9315C24.9773 7.9315 24.5411 8.14241 24.2151 8.56424C23.8988 8.97647 23.7406 9.56127 23.7406 10.3186C23.7406 11.076 23.8988 11.6608 24.2151 12.073C24.5411 12.4757 24.9773 12.677 25.5237 12.677ZM30.609 14V3.93377H32.8954V7.14058C32.8954 8.0801 32.8763 8.91895 32.8379 9.65714L32.9098 9.70028C33.1495 9.34557 33.3796 9.04358 33.6001 8.79432C33.8302 8.54506 34.1561 8.20473 34.5779 7.77332L34.7937 7.57199L35.8003 6.57975H38.4606L36.9938 8.04654C36.7158 8.32456 36.1454 8.85184 35.2826 9.62838L35.297 9.70028L35.4839 9.71466C35.9537 9.72425 36.3419 9.85847 36.6487 10.1173C36.9555 10.3762 37.2095 10.7596 37.4109 11.2677L38.475 14H36.0735L35.4983 12.4469C35.3641 12.0634 35.1867 11.771 34.9662 11.5697C34.7553 11.3588 34.4821 11.2534 34.1465 11.2534H33.7583L32.8954 12.1162V14H30.609ZM38.8316 14V3.93377H41.19V14H38.8316ZM47.7892 6.57975H50.1476V14H47.8611L47.7892 11.7135H47.7029C47.6358 12.2312 47.468 12.6818 47.1996 13.0653C46.9312 13.4392 46.6004 13.7268 46.2074 13.9281C45.8143 14.1294 45.3973 14.2301 44.9563 14.2301C44.4673 14.2301 44.012 14.1198 43.5901 13.8993C43.1683 13.6693 42.828 13.3385 42.5691 12.9071C42.3199 12.4661 42.1953 11.9388 42.1953 11.3253V6.57975H44.5392V10.6206C44.5392 11.8382 45.0713 12.4469 46.1355 12.4469C46.6436 12.4469 47.0462 12.2744 47.3434 11.9292C47.6406 11.5841 47.7892 11.1 47.7892 10.4768V6.57975ZM56.297 6.34967C56.8913 6.34967 57.4186 6.51264 57.8788 6.8386C58.3486 7.15496 58.7129 7.61034 58.9717 8.20473C59.2401 8.79911 59.3744 9.49416 59.3744 10.2899C59.3744 11.0856 59.2401 11.7806 58.9717 12.375C58.7129 12.9694 58.3486 13.4248 57.8788 13.7412C57.4186 14.0575 56.8913 14.2157 56.297 14.2157C55.6738 14.2157 55.1178 14.0336 54.6288 13.6693C54.1399 13.2954 53.7804 12.7249 53.5503 11.958H53.464L53.3921 14H51.12V3.93377H53.464V8.63614H53.5503C53.7804 7.8596 54.1399 7.28439 54.6288 6.9105C55.1178 6.53661 55.6738 6.34967 56.297 6.34967ZM55.2328 12.6626C55.7793 12.6626 56.2107 12.4565 56.527 12.0443C56.853 11.632 57.016 11.0472 57.016 10.2899C57.016 9.53251 56.853 8.94771 56.527 8.53547C56.2107 8.11365 55.7793 7.90274 55.2328 7.90274C54.696 7.90274 54.2645 8.0801 53.9386 8.43481C53.6222 8.78953 53.464 9.25449 53.464 9.8297V10.7644C53.464 11.3205 53.6222 11.7758 53.9386 12.1306C54.2645 12.4853 54.696 12.6626 55.2328 12.6626ZM65.2218 6.34967C65.8161 6.34967 66.3434 6.51264 66.8036 6.8386C67.2733 7.15496 67.6376 7.61034 67.8965 8.20473C68.1649 8.79911 68.2991 9.49416 68.2991 10.2899C68.2991 11.0856 68.1649 11.7806 67.8965 12.375C67.6376 12.9694 67.2733 13.4248 66.8036 13.7412C66.3434 14.0575 65.8161 14.2157 65.2218 14.2157C64.5986 14.2157 64.0426 14.0336 63.5536 13.6693C63.0647 13.2954 62.7052 12.7249 62.4751 11.958H62.3888L62.3169 14H60.0448V3.93377H62.3888V8.63614H62.4751C62.7052 7.8596 63.0647 7.28439 63.5536 6.9105C64.0426 6.53661 64.5986 6.34967 65.2218 6.34967ZM64.1576 12.6626C64.7041 12.6626 65.1355 12.4565 65.4518 12.0443C65.7778 11.632 65.9408 11.0472 65.9408 10.2899C65.9408 9.53251 65.7778 8.94771 65.4518 8.53547C65.1355 8.11365 64.7041 7.90274 64.1576 7.90274C63.6207 7.90274 63.1893 8.0801 62.8634 8.43481C62.547 8.78953 62.3888 9.25449 62.3888 9.8297V10.7644C62.3888 11.3205 62.547 11.7758 62.8634 12.1306C63.1893 12.4853 63.6207 12.6626 64.1576 12.6626ZM76.433 10.7788H70.8822C70.9014 11.3157 71.0787 11.7375 71.4143 12.0443C71.7594 12.3511 72.2004 12.5044 72.7373 12.5044C73.1495 12.5044 73.5042 12.4038 73.8014 12.2025C74.0986 12.0011 74.2903 11.7423 74.3766 11.4259H76.3755C76.2988 12.0491 76.0687 12.5716 75.6852 12.9934C75.3018 13.4152 74.8464 13.7268 74.3191 13.9281C73.7918 14.1294 73.2646 14.2301 72.7373 14.2301C71.4718 14.2301 70.4748 13.885 69.7462 13.1947C69.0271 12.5044 68.6676 11.5266 68.6676 10.2611C68.6676 9.48458 68.8258 8.80391 69.1422 8.21911C69.4681 7.62472 69.9235 7.16455 70.5083 6.8386C71.1027 6.51264 71.793 6.34967 72.5791 6.34967C73.3748 6.34967 74.0603 6.52223 74.6355 6.86736C75.2203 7.2029 75.6661 7.66307 75.9728 8.24787C76.2796 8.82308 76.433 9.4654 76.433 10.1748V10.7788ZM72.5216 8.0753C72.071 8.0753 71.6923 8.20473 71.3855 8.46357C71.0883 8.72242 70.9206 9.09631 70.8822 9.58524H74.1465C74.1082 9.10589 73.9404 8.7368 73.6432 8.47795C73.346 8.20952 72.9722 8.0753 72.5216 8.0753ZM82.3555 6.34967C82.8444 6.34967 83.2998 6.46471 83.7216 6.69479C84.1434 6.91529 84.479 7.24604 84.7282 7.68704C84.9871 8.11845 85.1165 8.64093 85.1165 9.25449V14H82.7725V9.95913C82.7725 9.37433 82.6335 8.92374 82.3555 8.60738C82.0774 8.29101 81.6844 8.13283 81.1763 8.13283C80.649 8.13283 80.2368 8.30539 79.9396 8.65052C79.652 8.99565 79.5082 9.47978 79.5082 10.1029V14H77.1642V6.57975H79.4506L79.5082 8.86622H79.5944C79.6711 8.34853 79.8437 7.90274 80.1121 7.52885C80.3806 7.14538 80.7113 6.85298 81.1044 6.65165C81.4974 6.45033 81.9145 6.34967 82.3555 6.34967Z" fill="#FCF5ED"></path><path d="M90.8 7.93C90.32 7.93 89.8767 7.82 89.47 7.6C89.07 7.37333 88.75 7.06667 88.51 6.68C88.2767 6.28667 88.16 5.85333 88.16 5.38C88.16 4.9 88.2767 4.46333 88.51 4.07C88.75 3.67667 89.07 3.37 89.47 3.15C89.8767 2.93 90.32 2.82 90.8 2.82C91.3 2.82 91.75 2.93333 92.15 3.16C92.55 3.38667 92.8633 3.69667 93.09 4.09C93.3233 4.47667 93.44 4.90667 93.44 5.38C93.44 5.84667 93.3233 6.27667 93.09 6.67C92.8567 7.05667 92.5367 7.36333 92.13 7.59C91.73 7.81667 91.2867 7.93 90.8 7.93ZM90.8 7.35C91.1733 7.35 91.5133 7.26667 91.82 7.1C92.1333 6.92667 92.3767 6.69 92.55 6.39C92.73 6.09 92.82 5.75333 92.82 5.38C92.82 5 92.73 4.66 92.55 4.36C92.37 4.05333 92.1267 3.81667 91.82 3.65C91.5133 3.48333 91.1733 3.4 90.8 3.4C90.4267 3.4 90.0867 3.48667 89.78 3.66C89.4733 3.82667 89.23 4.06 89.05 4.36C88.8767 4.66 88.79 5 88.79 5.38C88.79 5.74667 88.8767 6.08 89.05 6.38C89.23 6.68 89.4733 6.91667 89.78 7.09C90.0867 7.26333 90.4267 7.35 90.8 7.35ZM89.76 6.65V4.06H91.08C91.3533 4.06 91.5633 4.11667 91.71 4.23C91.8567 4.34333 91.93 4.50667 91.93 4.72C91.93 4.91333 91.87 5.06667 91.75 5.18C91.63 5.28667 91.4567 5.34333 91.23 5.35V5.38C91.45 5.38667 91.6033 5.42667 91.69 5.5C91.7833 5.57333 91.8433 5.68667 91.87 5.84L92 6.65H91.27L91.19 6.1C91.1767 5.98667 91.1433 5.91333 91.09 5.88C91.0367 5.84 90.9467 5.82 90.82 5.82H90.47V6.65H89.76ZM90.84 5.29C90.96 5.29 91.05 5.26333 91.11 5.21C91.1767 5.15 91.21 5.06667 91.21 4.96C91.21 4.75333 91.0867 4.65 90.84 4.65H90.47V5.29H90.84Z" fill="#FCF5ED"></path></svg>