<svg version="1.1" id="Layer_1" xmlns="http://www.w3.org/2000/svg" xmlns:xlink="http://www.w3.org/1999/xlink" x="0px" y="0px"
	 width="100%" viewBox="0 0 5967 4500" enable-background="new 0 0 5967 4500" xml:space="preserve">
<path fill="transparent" opacity="1.000000" stroke="none" 
	d="
M4224.000000,4504.000000 
	C2816.000000,4504.000000 1410.000000,4504.000000 4.000000,4504.000000 
	C4.000000,3004.000000 4.000000,1504.000000 4.000000,4.000001 
	C1993.333374,4.000000 3982.666748,4.000000 5972.000000,4.000000 
	C5972.000000,1504.000000 5972.000000,3004.000000 5972.000000,4504.000000 
	C5390.000000,4504.000000 4808.000000,4504.000000 4224.000000,4504.000000 
M3799.044434,3353.133545 
	C3763.612793,3360.057617 3727.713135,3362.661621 3691.748779,3362.668213 
	C2817.145752,3362.832764 1942.542847,3362.796387 1067.939941,3362.797607 
	C1061.273804,3362.797607 1054.604492,3362.697510 1047.943481,3362.886719 
	C1045.546509,3362.955078 1043.169922,3363.738281 1039.096802,3364.518799 
	C1041.380005,3369.220215 1042.816895,3372.767334 1044.731323,3376.034912 
	C1096.046021,3463.626221 1162.565674,3537.273193 1247.213745,3593.661621 
	C1277.661621,3613.944092 1309.590820,3632.063477 1341.292725,3650.393799 
	C1550.588867,3771.411133 1760.020508,3892.194092 1969.382324,4013.098145 
	C2154.525146,4120.016113 2339.585449,4227.076660 2524.802002,4333.867188 
	C2559.403076,4353.817383 2593.909912,4374.107422 2629.605713,4391.948730 
	C2716.300049,4435.280762 2808.304688,4460.471680 2904.902344,4469.249512 
	C2979.726074,4476.049316 3054.000732,4472.618164 3127.665771,4458.316895 
	C3214.674072,4441.424805 3296.589111,4410.677734 3373.373535,4366.214844 
	C3498.445801,4293.790527 3623.679443,4221.645508 3748.836914,4149.368652 
	C3933.978271,4042.451904 4119.118164,3935.532959 4304.248047,3828.596680 
	C4426.512207,3757.973633 4548.784668,3687.365234 4670.999512,3616.656982 
	C4727.383301,3584.036377 4777.782227,3543.667236 4821.554688,3495.582031 
	C4938.638672,3366.961182 4999.006348,3215.283936 4999.395508,3041.355225 
	C5000.249023,2660.051270 4999.657715,2278.744629 4999.672852,1897.438965 
	C4999.672852,1889.512817 4999.870117,1881.586670 4999.980957,1873.245483 
	C5020.396973,1866.147095 5039.845215,1859.366699 5059.307129,1852.624146 
	C5078.170410,1846.088745 5097.033691,1839.551880 5115.922363,1833.090210 
	C5135.441895,1826.412842 5155.004395,1819.861816 5174.524902,1813.188110 
	C5194.048340,1806.513306 5213.532227,1799.723511 5233.053223,1793.042358 
	C5251.937012,1786.579346 5270.853027,1780.211914 5289.741699,1773.762817 
	C5309.272461,1767.094360 5328.793945,1760.398682 5348.306641,1753.677002 
	C5367.815918,1746.956543 5387.285156,1740.120605 5406.814941,1733.461670 
	C5425.715820,1727.017578 5444.692871,1720.799072 5463.596191,1714.361938 
	C5483.130371,1707.709839 5502.610352,1700.898193 5522.124023,1694.184937 
	C5541.627930,1687.474976 5561.136719,1680.777588 5580.657227,1674.116943 
	C5599.555664,1667.668701 5618.485352,1661.312988 5637.376953,1654.845947 
	C5656.892090,1648.165649 5676.364746,1641.360474 5695.880859,1634.682373 
	C5715.401855,1628.002319 5734.964844,1621.445435 5754.488770,1614.772705 
	C5773.388184,1608.313354 5792.339355,1601.991821 5811.123535,1595.210815 
	C5830.191406,1588.327881 5849.836426,1582.910522 5868.190918,1573.492676 
	C5861.635254,1572.077271 5855.289551,1571.688721 5848.943848,1571.688599 
	C4665.696777,1571.660645 3482.449707,1571.598877 2299.202637,1571.792969 
	C2217.681885,1571.806396 2150.657471,1605.127197 2098.106445,1666.723877 
	C2055.870117,1716.230103 2035.065308,1774.211304 2035.697754,1839.502075 
	C2036.524292,1924.822021 2070.697021,1994.366821 2136.735352,2047.787842 
	C2185.060547,2086.879883 2240.999023,2105.289307 2303.293701,2105.271729 
	C2755.260742,2105.144287 3207.227783,2105.177490 3659.194824,2105.275635 
	C3683.154053,2105.281006 3707.119629,2106.141357 3731.070801,2106.947998 
	C3759.097168,2107.891602 3786.842285,2111.746826 3814.264648,2117.296631 
	C3938.423828,2142.423828 4046.152100,2199.186279 4135.746094,2288.648438 
	C4238.184082,2390.935059 4298.964844,2514.286133 4316.835938,2658.295410 
	C4326.457520,2735.829590 4322.450195,2812.803467 4302.479492,2888.258545 
	C4259.500977,3050.642822 4166.637207,3177.309570 4024.825928,3267.354736 
	C3956.632080,3310.655029 3882.321289,3339.155029 3799.044434,3353.133545 
M2669.999512,1174.818237 
	C3419.941406,1174.738892 4169.883301,1174.659790 4919.825195,1174.567871 
	C4920.483887,1174.567749 4921.241699,1174.544067 4921.772949,1174.228271 
	C4922.270020,1173.932739 4922.527344,1173.233521 4922.889648,1172.711670 
	C4923.128418,1172.110352 4923.723633,1171.367065 4923.549805,1170.929932 
	C4922.089355,1167.260986 4920.775879,1163.491211 4918.888672,1160.041382 
	C4858.970703,1050.502808 4775.861816,963.176636 4667.705078,900.538635 
	C4434.282715,765.354004 4200.556152,630.693909 3966.956055,495.816956 
	C3767.965576,380.923218 3569.000977,265.985352 3369.978516,151.147003 
	C3267.956787,92.279213 3157.949951,58.535793 3040.745850,48.981262 
	C2968.040771,43.054314 2895.558105,46.857933 2823.917236,61.173580 
	C2737.692139,78.403450 2656.427002,109.073441 2580.251221,153.125595 
	C2447.643066,229.812546 2315.015625,306.466583 2182.357666,383.067413 
	C1883.585938,555.587524 1584.767822,728.026917 1286.025146,900.597290 
	C1229.664795,933.154175 1178.787964,972.995178 1134.851685,1020.941101 
	C1015.879517,1150.770752 954.976990,1303.829956 954.882263,1480.278198 
	C954.675049,1866.252197 954.818237,2252.226562 954.818237,2638.200684 
	C954.818237,2646.173828 954.818176,2654.146973 954.818176,2661.330566 
	C953.456055,2662.559570 952.979431,2663.017578 952.472473,2663.439209 
	C951.962524,2663.863281 951.446045,2664.288574 950.888367,2664.644043 
	C950.328186,2665.000732 949.720581,2665.286621 949.120850,2665.577148 
	C948.522034,2665.867188 947.911438,2666.134766 947.298340,2666.394043 
	C946.684509,2666.653809 946.071167,2666.919922 945.441101,2667.135254 
	C662.653687,2763.759521 379.864655,2860.378662 97.079132,2957.008545 
	C95.190346,2957.654053 93.356133,2958.457520 91.486458,2959.160889 
	C90.239204,2959.630127 88.937462,2959.973389 87.735535,2960.534424 
	C87.267548,2960.753174 86.893539,2961.368408 86.680405,2961.886475 
	C86.432274,2962.489746 86.407570,2963.185059 86.032661,2965.204102 
	C95.510979,2965.204102 104.752151,2965.204346 113.993324,2965.204346 
	C1303.247070,2965.204590 2492.500977,2965.204102 3681.754639,2965.204346 
	C3687.087646,2965.204346 3692.460938,2965.624023 3697.745850,2965.119385 
	C3712.299805,2963.729736 3727.018066,2962.977295 3741.315674,2960.164551 
	C3845.821777,2939.605225 3939.074219,2839.371826 3922.760742,2705.657715 
	C3912.277832,2619.735352 3864.554932,2558.454346 3786.001465,2521.937744 
	C3754.693604,2507.383789 3721.257080,2502.678223 3686.799805,2502.689941 
	C3224.164062,2502.847168 2761.528320,2502.826172 2298.892578,2502.742676 
	C2257.498779,2502.735107 2216.353027,2498.727539 2175.818848,2490.507324 
	C2032.219116,2461.385010 1910.223022,2393.254639 1811.572388,2284.818848 
	C1711.430420,2174.743896 1654.620850,2044.895752 1641.005127,1896.799438 
	C1635.253174,1834.235840 1638.393677,1771.772705 1651.016479,1709.870605 
	C1680.192383,1566.792725 1748.180054,1445.426636 1856.269287,1347.658325 
	C1983.046509,1232.986450 2132.495361,1174.746704 2304.023682,1174.809692 
	C2424.682373,1174.854004 2545.340820,1174.818115 2669.999512,1174.818237 
z"/>
<path fill="#FCF5ED" opacity="1.000000" stroke="none" 
	d="
M3800.750977,3352.861084 
	C3882.321289,3339.155029 3956.632080,3310.655029 4024.825928,3267.354736 
	C4166.637207,3177.309570 4259.500977,3050.642822 4302.479492,2888.258545 
	C4322.450195,2812.803467 4326.457520,2735.829590 4316.835938,2658.295410 
	C4298.964844,2514.286133 4238.184082,2390.935059 4135.746094,2288.648438 
	C4046.152100,2199.186279 3938.423828,2142.423828 3814.264648,2117.296631 
	C3786.842285,2111.746826 3759.097168,2107.891602 3731.070801,2106.947998 
	C3707.119629,2106.141357 3683.154053,2105.281006 3659.194824,2105.275635 
	C3207.227783,2105.177490 2755.260742,2105.144287 2303.293701,2105.271729 
	C2240.999023,2105.289307 2185.060547,2086.879883 2136.735352,2047.787842 
	C2070.697021,1994.366821 2036.524292,1924.822021 2035.697754,1839.502075 
	C2035.065308,1774.211304 2055.870117,1716.230103 2098.106445,1666.723877 
	C2150.657471,1605.127197 2217.681885,1571.806396 2299.202637,1571.792969 
	C3482.449707,1571.598877 4665.696777,1571.660645 5848.943848,1571.688599 
	C5855.289551,1571.688721 5861.635254,1572.077271 5868.190918,1573.492676 
	C5849.836426,1582.910522 5830.191406,1588.327881 5811.123535,1595.210815 
	C5792.339355,1601.991821 5773.388184,1608.313354 5754.488770,1614.772705 
	C5734.964844,1621.445435 5715.401855,1628.002319 5695.880859,1634.682373 
	C5676.364746,1641.360474 5656.892090,1648.165649 5637.376953,1654.845947 
	C5618.485352,1661.312988 5599.555664,1667.668701 5580.657227,1674.116943 
	C5561.136719,1680.777588 5541.627930,1687.474976 5522.124023,1694.184937 
	C5502.610352,1700.898193 5483.130371,1707.709839 5463.596191,1714.361938 
	C5444.692871,1720.799072 5425.715820,1727.017578 5406.814941,1733.461670 
	C5387.285156,1740.120605 5367.815918,1746.956543 5348.306641,1753.677002 
	C5328.793945,1760.398682 5309.272461,1767.094360 5289.741699,1773.762817 
	C5270.853027,1780.211914 5251.937012,1786.579346 5233.053223,1793.042358 
	C5213.532227,1799.723511 5194.048340,1806.513306 5174.524902,1813.188110 
	C5155.004395,1819.861816 5135.441895,1826.412842 5115.922363,1833.090210 
	C5097.033691,1839.551880 5078.170410,1846.088745 5059.307129,1852.624146 
	C5039.845215,1859.366699 5020.396973,1866.147095 4999.980957,1873.245483 
	C4999.870117,1881.586670 4999.672852,1889.512817 4999.672852,1897.438965 
	C4999.657715,2278.744629 5000.249023,2660.051270 4999.395508,3041.355225 
	C4999.006348,3215.283936 4938.638672,3366.961182 4821.554688,3495.582031 
	C4777.782227,3543.667236 4727.383301,3584.036377 4670.999512,3616.656982 
	C4548.784668,3687.365234 4426.512207,3757.973633 4304.248047,3828.596680 
	C4119.118164,3935.532959 3933.978271,4042.451904 3748.836914,4149.368652 
	C3623.679443,4221.645508 3498.445801,4293.790527 3373.373535,4366.214844 
	C3296.589111,4410.677734 3214.674072,4441.424805 3127.665771,4458.316895 
	C3054.000732,4472.618164 2979.726074,4476.049316 2904.902344,4469.249512 
	C2808.304688,4460.471680 2716.300049,4435.280762 2629.605713,4391.948730 
	C2593.909912,4374.107422 2559.403076,4353.817383 2524.802002,4333.867188 
	C2339.585449,4227.076660 2154.525146,4120.016113 1969.382324,4013.098145 
	C1760.020508,3892.194092 1550.588867,3771.411133 1341.292725,3650.393799 
	C1309.590820,3632.063477 1277.661621,3613.944092 1247.213745,3593.661621 
	C1162.565674,3537.273193 1096.046021,3463.626221 1044.731323,3376.034912 
	C1042.816895,3372.767334 1041.380005,3369.220215 1039.096802,3364.518799 
	C1043.169922,3363.738281 1045.546509,3362.955078 1047.943481,3362.886719 
	C1054.604492,3362.697510 1061.273804,3362.797607 1067.939941,3362.797607 
	C1942.542847,3362.796387 2817.145752,3362.832764 3691.748779,3362.668213 
	C3727.713135,3362.661621 3763.612793,3360.057617 3800.750977,3352.861084 
z"/>
<path fill="#FCF5ED" opacity="1.000000" stroke="none" 
	d="
M2667.999512,1174.818115 
	C2545.340820,1174.818115 2424.682373,1174.854004 2304.023682,1174.809692 
	C2132.495361,1174.746704 1983.046509,1232.986450 1856.269287,1347.658325 
	C1748.180054,1445.426636 1680.192383,1566.792725 1651.016479,1709.870605 
	C1638.393677,1771.772705 1635.253174,1834.235840 1641.005127,1896.799438 
	C1654.620850,2044.895752 1711.430420,2174.743896 1811.572388,2284.818848 
	C1910.223022,2393.254639 2032.219116,2461.385010 2175.818848,2490.507324 
	C2216.353027,2498.727539 2257.498779,2502.735107 2298.892578,2502.742676 
	C2761.528320,2502.826172 3224.164062,2502.847168 3686.799805,2502.689941 
	C3721.257080,2502.678223 3754.693604,2507.383789 3786.001465,2521.937744 
	C3864.554932,2558.454346 3912.277832,2619.735352 3922.760742,2705.657715 
	C3939.074219,2839.371826 3845.821777,2939.605225 3741.315674,2960.164551 
	C3727.018066,2962.977295 3712.299805,2963.729736 3697.745850,2965.119385 
	C3692.460938,2965.624023 3687.087646,2965.204346 3681.754639,2965.204346 
	C2492.500977,2965.204102 1303.247070,2965.204590 113.993324,2965.204346 
	C104.752151,2965.204346 95.510979,2965.204102 86.032661,2965.204102 
	C86.407570,2963.185059 86.432274,2962.489746 86.680405,2961.886475 
	C86.893539,2961.368408 87.267548,2960.753174 87.735535,2960.534424 
	C88.937462,2959.973389 90.239204,2959.630127 91.486458,2959.160889 
	C93.356133,2958.457520 95.190346,2957.654053 97.079132,2957.008545 
	C379.864655,2860.378662 662.653687,2763.759521 945.441101,2667.135254 
	C946.071167,2666.919922 946.684509,2666.653809 947.298340,2666.394043 
	C947.911438,2666.134766 948.522034,2665.867188 949.120850,2665.577148 
	C949.720581,2665.286621 950.328186,2665.000732 950.888367,2664.644043 
	C951.446045,2664.288574 951.962524,2663.863281 952.472473,2663.439209 
	C952.979431,2663.017578 953.456055,2662.559570 954.818176,2661.330566 
	C954.818176,2654.146973 954.818237,2646.173828 954.818237,2638.200684 
	C954.818237,2252.226562 954.675049,1866.252197 954.882263,1480.278198 
	C954.976990,1303.829956 1015.879517,1150.770752 1134.851685,1020.941101 
	C1178.787964,972.995178 1229.664795,933.154175 1286.025146,900.597290 
	C1584.767822,728.026917 1883.585938,555.587524 2182.357666,383.067413 
	C2315.015625,306.466583 2447.643066,229.812546 2580.251221,153.125595 
	C2656.427002,109.073441 2737.692139,78.403450 2823.917236,61.173580 
	C2895.558105,46.857933 2968.040771,43.054314 3040.745850,48.981262 
	C3157.949951,58.535793 3267.956787,92.279213 3369.978516,151.147003 
	C3569.000977,265.985352 3767.965576,380.923218 3966.956055,495.816956 
	C4200.556152,630.693909 4434.282715,765.354004 4667.705078,900.538635 
	C4775.861816,963.176636 4858.970703,1050.502808 4918.888672,1160.041382 
	C4920.775879,1163.491211 4922.089355,1167.260986 4923.549805,1170.929932 
	C4923.723633,1171.367065 4923.128418,1172.110352 4922.889648,1172.711670 
	C4922.527344,1173.233521 4922.270020,1173.932739 4921.772949,1174.228271 
	C4921.241699,1174.544067 4920.483887,1174.567749 4919.825195,1174.567871 
	C4169.883301,1174.659790 3419.941406,1174.738892 2667.999512,1174.818115 
z"/>
</svg>